<svg width="24" height="24" viewBox="0 0 24 24" fill="none" xmlns="http://www.w3.org/2000/svg">
<path d="M7.934 16.066C8.00769 16.1347 8.06679 16.2175 8.10778 16.3095C8.14877 16.4015 8.17081 16.5008 8.17259 16.6015C8.17437 16.7022 8.15584 16.8022 8.11812 16.8956C8.0804 16.989 8.02426 17.0738 7.95304 17.145C7.88182 17.2163 7.79699 17.2724 7.7036 17.3101C7.61021 17.3478 7.51018 17.3664 7.40948 17.3646C7.30877 17.3628 7.20946 17.3408 7.11746 17.2998C7.02546 17.2588 6.94266 17.1997 6.874 17.126C5.75837 16.0102 5.03718 14.561 4.81989 12.9982C4.60259 11.4354 4.90105 9.84441 5.66997 8.46663C6.43889 7.08885 7.63628 5.99951 9.08044 5.36395C10.5246 4.72839 12.1367 4.5813 13.672 4.945C13.7683 4.96715 13.8593 5.00812 13.9397 5.06555C14.0202 5.12298 14.0884 5.19574 14.1407 5.27965C14.1929 5.36355 14.228 5.45695 14.244 5.55448C14.26 5.652 14.2566 5.75173 14.2339 5.84792C14.2112 5.94411 14.1698 6.03488 14.1119 6.115C14.0541 6.19512 13.9809 6.26302 13.8968 6.31479C13.8126 6.36656 13.719 6.40118 13.6214 6.41666C13.5238 6.43214 13.4241 6.42818 13.328 6.405C12.1102 6.116 10.8313 6.23227 9.68553 6.73616C8.53978 7.24005 7.58974 8.10404 6.97965 9.19695C6.36956 10.2899 6.13275 11.552 6.30517 12.7917C6.4776 14.0314 7.04883 15.1811 7.934 16.066ZM17.889 9.142C18.0766 9.07649 18.2826 9.08813 18.4617 9.17438C18.6408 9.26063 18.7783 9.41443 18.844 9.602C19.2956 10.8906 19.3742 12.2806 19.0706 13.6118C18.767 14.9431 18.0936 16.1616 17.128 17.127C17.0583 17.1967 16.9756 17.2519 16.8846 17.2896C16.7936 17.3273 16.696 17.3467 16.5975 17.3467C16.499 17.3467 16.4014 17.3273 16.3104 17.2896C16.2194 17.2519 16.1367 17.1967 16.067 17.127C15.9973 17.0573 15.9421 16.9746 15.9044 16.8836C15.8667 16.7926 15.8473 16.695 15.8473 16.5965C15.8473 16.498 15.8667 16.4004 15.9044 16.3094C15.9421 16.2184 15.9973 16.1357 16.067 16.066C16.8332 15.3004 17.3675 14.3339 17.6085 13.2778C17.8495 12.2218 17.7872 11.1192 17.429 10.097C17.3635 9.90935 17.3751 9.70338 17.4614 9.52431C17.5476 9.34525 17.7014 9.20774 17.889 9.142ZM15.88 6.667C15.9901 6.57281 16.1295 6.51979 16.2743 6.517C16.4192 6.51421 16.5605 6.56183 16.6741 6.65171C16.7877 6.74159 16.8666 6.86816 16.8972 7.00976C16.9278 7.15136 16.9083 7.2992 16.842 7.428L16.712 7.678C16.2442 8.58436 15.7726 9.4887 15.297 10.391C14.9173 11.113 14.532 11.8321 14.141 12.548C13.97 12.858 13.815 13.134 13.689 13.351C13.5923 13.5239 13.4855 13.6908 13.369 13.851C13.0573 14.2315 12.6086 14.4742 12.1197 14.527C11.6307 14.5797 11.1405 14.4382 10.7549 14.133C10.3692 13.8278 10.119 13.3832 10.058 12.8952C9.99705 12.4072 10.1303 11.9147 10.429 11.524C10.515 11.415 10.673 11.259 10.842 11.099C11.024 10.926 11.256 10.712 11.52 10.474C12.1264 9.92916 12.7371 9.38914 13.352 8.854C14.1206 8.18319 14.8919 7.51552 15.666 6.851L15.88 6.667ZM22 12C22 17.523 17.523 22 12 22C6.477 22 2 17.523 2 12C2 6.477 6.477 2 12 2C17.523 2 22 6.477 22 12ZM3.5 12C3.5 14.2543 4.39553 16.4163 5.98959 18.0104C7.58365 19.6045 9.74566 20.5 12 20.5C14.2543 20.5 16.4163 19.6045 18.0104 18.0104C19.6045 16.4163 20.5 14.2543 20.5 12C20.5 9.74566 19.6045 7.58365 18.0104 5.98959C16.4163 4.39553 14.2543 3.5 12 3.5C9.74566 3.5 7.58365 4.39553 5.98959 5.98959C4.39553 7.58365 3.5 9.74566 3.5 12Z" fill="black"/>
</svg>
