<svg width="19" height="17" viewBox="0 0 19 17" fill="none" xmlns="http://www.w3.org/2000/svg">
<path d="M8.03111 1.55291L0.973109 13.3359C0.827688 13.5879 0.750771 13.8737 0.750006 14.1646C0.749241 14.4556 0.824654 14.7417 0.968748 14.9945C1.11284 15.2473 1.3206 15.458 1.57136 15.6056C1.82212 15.7532 2.10715 15.8326 2.39811 15.8359H16.5141C16.8052 15.8329 17.0904 15.7537 17.3413 15.6062C17.5923 15.4586 17.8002 15.2479 17.9443 14.995C18.0885 14.7421 18.1638 14.4559 18.1629 14.1648C18.162 13.8737 18.0848 13.5879 17.9391 13.3359L10.8821 1.55291C10.7337 1.30784 10.5245 1.10519 10.2749 0.96454C10.0253 0.823893 9.74363 0.75 9.45711 0.75C9.17059 0.75 8.88892 0.823893 8.63929 0.96454C8.38967 1.10519 8.18054 1.30784 8.03211 1.55291" fill="#F7FF00"/>
<path d="M9.45611 12.3359H9.46411M9.45611 6.33591V9.33591M8.03111 1.55291L0.973109 13.3359C0.827688 13.5879 0.750771 13.8737 0.750006 14.1646C0.749241 14.4556 0.824654 14.7417 0.968748 14.9945C1.11284 15.2473 1.3206 15.458 1.57136 15.6056C1.82212 15.7532 2.10715 15.8326 2.39811 15.8359H16.5141C16.8052 15.8329 17.0904 15.7537 17.3413 15.6062C17.5923 15.4586 17.8002 15.2479 17.9443 14.995C18.0885 14.7421 18.1638 14.4559 18.1629 14.1648C18.162 13.8737 18.0848 13.5879 17.9391 13.3359L10.8821 1.55291C10.7337 1.30784 10.5245 1.10519 10.2749 0.96454C10.0253 0.823893 9.74363 0.75 9.45711 0.75C9.17059 0.75 8.88892 0.823893 8.63929 0.96454C8.38967 1.10519 8.18054 1.30784 8.03211 1.55291" stroke="#2B2D42" stroke-width="1.5" stroke-miterlimit="10" stroke-linecap="round" stroke-linejoin="round"/>
</svg>
